<mxfile host="app.diagrams.net" agent="Mozilla/5.0 (Windows NT 10.0; Win64; x64) AppleWebKit/537.36 (KHTML, like Gecko) Chrome/138.0.0.0 Safari/537.36 Edg/138.0.0.0" version="28.0.7">
  <diagram name="Page-1" id="Iw4_PsStsNONQKmC1LLE">
    <mxGraphModel dx="3412" dy="1545" grid="1" gridSize="10" guides="1" tooltips="1" connect="1" arrows="1" fold="1" page="1" pageScale="1" pageWidth="827" pageHeight="1169" math="0" shadow="0">
      <root>
        <mxCell id="0" />
        <mxCell id="1" parent="0" />
        <mxCell id="SvLPKWam39RE-qO2pDDD-3" value="" style="edgeStyle=orthogonalEdgeStyle;rounded=0;orthogonalLoop=1;jettySize=auto;html=1;" parent="1" source="SvLPKWam39RE-qO2pDDD-1" target="SvLPKWam39RE-qO2pDDD-2" edge="1">
          <mxGeometry relative="1" as="geometry" />
        </mxCell>
        <mxCell id="SvLPKWam39RE-qO2pDDD-1" value="Start" style="ellipse;whiteSpace=wrap;html=1;" parent="1" vertex="1">
          <mxGeometry x="280" y="10" width="110" height="40" as="geometry" />
        </mxCell>
        <mxCell id="EXC76OILTYou8UnTK0i5-21" value="" style="edgeStyle=orthogonalEdgeStyle;rounded=0;orthogonalLoop=1;jettySize=auto;html=1;" parent="1" source="SvLPKWam39RE-qO2pDDD-2" target="EXC76OILTYou8UnTK0i5-20" edge="1">
          <mxGeometry relative="1" as="geometry" />
        </mxCell>
        <mxCell id="SvLPKWam39RE-qO2pDDD-2" value="confirm ←&amp;nbsp;0&lt;div&gt;number = random number&amp;nbsp;&lt;span style=&quot;color: light-dark(rgb(0, 0, 0), rgb(255, 255, 255));&quot;&gt;←&lt;/span&gt;&lt;span style=&quot;color: initial;&quot;&gt;&amp;nbsp;1 - 100&lt;/span&gt;&lt;/div&gt;&lt;div&gt;condition&amp;nbsp;&lt;span style=&quot;color: light-dark(rgb(0, 0, 0), rgb(255, 255, 255));&quot;&gt;←&lt;/span&gt;&lt;span style=&quot;color: initial;&quot;&gt;&amp;nbsp;true&lt;/span&gt;&lt;/div&gt;&lt;div&gt;Exit&amp;nbsp;&lt;span style=&quot;color: light-dark(rgb(0, 0, 0), rgb(255, 255, 255));&quot;&gt;←&lt;/span&gt;&lt;span style=&quot;color: initial;&quot;&gt;&amp;nbsp;true&lt;/span&gt;&lt;/div&gt;&lt;div&gt;Check&amp;nbsp;&lt;span style=&quot;color: light-dark(rgb(0, 0, 0), rgb(255, 255, 255));&quot;&gt;←&lt;/span&gt;&lt;span style=&quot;color: initial;&quot;&gt;&amp;nbsp;0&lt;/span&gt;&lt;/div&gt;&lt;div&gt;Guess ← 0&lt;/div&gt;&lt;div&gt;condition&amp;nbsp;&amp;nbsp;&lt;span style=&quot;background-color: transparent; color: light-dark(rgb(0, 0, 0), rgb(255, 255, 255));&quot;&gt;← 0&lt;/span&gt;&lt;/div&gt;" style="whiteSpace=wrap;html=1;" parent="1" vertex="1">
          <mxGeometry x="215.5" y="80" width="239" height="120" as="geometry" />
        </mxCell>
        <mxCell id="SvLPKWam39RE-qO2pDDD-12" value="" style="edgeStyle=orthogonalEdgeStyle;rounded=0;orthogonalLoop=1;jettySize=auto;html=1;" parent="1" source="SvLPKWam39RE-qO2pDDD-10" target="SvLPKWam39RE-qO2pDDD-11" edge="1">
          <mxGeometry relative="1" as="geometry" />
        </mxCell>
        <mxCell id="SvLPKWam39RE-qO2pDDD-10" value="Do you want to play game ?&amp;nbsp;&lt;div&gt;( 1 ←&amp;nbsp;play -1 ←&amp;nbsp;Exit )&lt;/div&gt;" style="rounded=0;whiteSpace=wrap;html=1;" parent="1" vertex="1">
          <mxGeometry x="214.5" y="280" width="240" height="50" as="geometry" />
        </mxCell>
        <mxCell id="SvLPKWam39RE-qO2pDDD-25" value="" style="edgeStyle=orthogonalEdgeStyle;rounded=0;orthogonalLoop=1;jettySize=auto;html=1;" parent="1" source="SvLPKWam39RE-qO2pDDD-11" target="SvLPKWam39RE-qO2pDDD-23" edge="1">
          <mxGeometry relative="1" as="geometry" />
        </mxCell>
        <mxCell id="SvLPKWam39RE-qO2pDDD-11" value="input confirm" style="shape=parallelogram;perimeter=parallelogramPerimeter;whiteSpace=wrap;html=1;fixedSize=1;" parent="1" vertex="1">
          <mxGeometry x="229" y="390" width="210" height="40" as="geometry" />
        </mxCell>
        <mxCell id="SvLPKWam39RE-qO2pDDD-30" value="" style="edgeStyle=orthogonalEdgeStyle;rounded=0;orthogonalLoop=1;jettySize=auto;html=1;" parent="1" source="SvLPKWam39RE-qO2pDDD-23" target="SvLPKWam39RE-qO2pDDD-29" edge="1">
          <mxGeometry relative="1" as="geometry" />
        </mxCell>
        <mxCell id="EXC76OILTYou8UnTK0i5-12" value="" style="edgeStyle=orthogonalEdgeStyle;rounded=0;orthogonalLoop=1;jettySize=auto;html=1;" parent="1" source="SvLPKWam39RE-qO2pDDD-23" target="SvLPKWam39RE-qO2pDDD-33" edge="1">
          <mxGeometry relative="1" as="geometry" />
        </mxCell>
        <mxCell id="SvLPKWam39RE-qO2pDDD-23" value="confirm ← 1?&lt;div&gt;and confirm ←&amp;nbsp;-1 ?&lt;/div&gt;" style="rhombus;whiteSpace=wrap;html=1;" parent="1" vertex="1">
          <mxGeometry x="267" y="470" width="134" height="100" as="geometry" />
        </mxCell>
        <mxCell id="SvLPKWam39RE-qO2pDDD-28" value="Ture ( confirm&amp;nbsp;&amp;nbsp;&lt;span style=&quot;text-wrap-mode: wrap;&quot;&gt;←&amp;nbsp;&lt;/span&gt;1 )" style="text;html=1;align=center;verticalAlign=middle;resizable=0;points=[];autosize=1;strokeColor=none;fillColor=none;" parent="1" vertex="1">
          <mxGeometry x="334" y="580" width="130" height="30" as="geometry" />
        </mxCell>
        <mxCell id="EXC76OILTYou8UnTK0i5-44" style="edgeStyle=orthogonalEdgeStyle;rounded=0;orthogonalLoop=1;jettySize=auto;html=1;" parent="1" source="SvLPKWam39RE-qO2pDDD-29" edge="1">
          <mxGeometry relative="1" as="geometry">
            <mxPoint x="620" y="630" as="targetPoint" />
          </mxGeometry>
        </mxCell>
        <mxCell id="SvLPKWam39RE-qO2pDDD-29" value="condition ← false&amp;nbsp;" style="whiteSpace=wrap;html=1;" parent="1" vertex="1">
          <mxGeometry x="560" y="490" width="120" height="60" as="geometry" />
        </mxCell>
        <mxCell id="SvLPKWam39RE-qO2pDDD-32" value="False (confirm ←&amp;nbsp;-1)" style="text;html=1;align=center;verticalAlign=middle;whiteSpace=wrap;rounded=0;" parent="1" vertex="1">
          <mxGeometry x="410" y="490" width="120" height="30" as="geometry" />
        </mxCell>
        <mxCell id="EXC76OILTYou8UnTK0i5-13" value="" style="edgeStyle=orthogonalEdgeStyle;rounded=0;orthogonalLoop=1;jettySize=auto;html=1;" parent="1" source="SvLPKWam39RE-qO2pDDD-33" target="EXC76OILTYou8UnTK0i5-10" edge="1">
          <mxGeometry relative="1" as="geometry" />
        </mxCell>
        <mxCell id="SvLPKWam39RE-qO2pDDD-33" value="max ←&amp;nbsp; 100&lt;div&gt;min&amp;nbsp;&lt;span style=&quot;color: light-dark(rgb(0, 0, 0), rgb(255, 255, 255));&quot;&gt;←&lt;/span&gt;&lt;span style=&quot;color: light-dark(rgb(0, 0, 0), rgb(255, 255, 255));&quot;&gt;&amp;nbsp; 1&lt;/span&gt;&lt;/div&gt;&lt;div&gt;number&amp;nbsp;&lt;span style=&quot;color: light-dark(rgb(0, 0, 0), rgb(255, 255, 255));&quot;&gt;←&amp;nbsp;&lt;/span&gt;&lt;span style=&quot;color: initial;&quot;&gt;&amp;nbsp;random&amp;nbsp;&lt;/span&gt;&lt;span style=&quot;color: initial;&quot;&gt;&amp;nbsp;number 1 - 100&lt;/span&gt;&lt;/div&gt;&lt;div&gt;score&amp;nbsp;&amp;nbsp;&lt;span style=&quot;color: light-dark(rgb(0, 0, 0), rgb(255, 255, 255));&quot;&gt;←&lt;/span&gt;&lt;span style=&quot;color: light-dark(rgb(0, 0, 0), rgb(255, 255, 255));&quot;&gt;&amp;nbsp;&amp;nbsp;&lt;/span&gt;&lt;span style=&quot;color: initial;&quot;&gt;100&amp;nbsp;&lt;/span&gt;&lt;/div&gt;&lt;div&gt;&lt;span style=&quot;color: initial;&quot;&gt;Exit ← true&lt;/span&gt;&lt;/div&gt;" style="rounded=0;whiteSpace=wrap;html=1;" parent="1" vertex="1">
          <mxGeometry x="220.36" y="610" width="226.01" height="80" as="geometry" />
        </mxCell>
        <mxCell id="SvLPKWam39RE-qO2pDDD-37" value="" style="edgeStyle=orthogonalEdgeStyle;rounded=0;orthogonalLoop=1;jettySize=auto;html=1;" parent="1" source="SvLPKWam39RE-qO2pDDD-34" target="SvLPKWam39RE-qO2pDDD-36" edge="1">
          <mxGeometry relative="1" as="geometry" />
        </mxCell>
        <mxCell id="SvLPKWam39RE-qO2pDDD-34" value="Show Score&amp;nbsp;" style="whiteSpace=wrap;html=1;rounded=0;" parent="1" vertex="1">
          <mxGeometry x="275.05" y="780" width="116.63" height="40" as="geometry" />
        </mxCell>
        <mxCell id="SvLPKWam39RE-qO2pDDD-39" value="" style="edgeStyle=orthogonalEdgeStyle;rounded=0;orthogonalLoop=1;jettySize=auto;html=1;" parent="1" source="SvLPKWam39RE-qO2pDDD-36" target="SvLPKWam39RE-qO2pDDD-38" edge="1">
          <mxGeometry relative="1" as="geometry" />
        </mxCell>
        <mxCell id="SvLPKWam39RE-qO2pDDD-36" value="show Guess ur number (min - max)" style="whiteSpace=wrap;html=1;rounded=0;" parent="1" vertex="1">
          <mxGeometry x="230.71000000000004" y="840" width="206.59" height="30" as="geometry" />
        </mxCell>
        <mxCell id="SvLPKWam39RE-qO2pDDD-41" value="" style="edgeStyle=orthogonalEdgeStyle;rounded=0;orthogonalLoop=1;jettySize=auto;html=1;" parent="1" source="SvLPKWam39RE-qO2pDDD-38" target="SvLPKWam39RE-qO2pDDD-40" edge="1">
          <mxGeometry relative="1" as="geometry" />
        </mxCell>
        <mxCell id="SvLPKWam39RE-qO2pDDD-38" value="Input Guess" style="shape=parallelogram;perimeter=parallelogramPerimeter;whiteSpace=wrap;html=1;fixedSize=1;rounded=0;" parent="1" vertex="1">
          <mxGeometry x="270.06" y="910" width="126.62" height="45" as="geometry" />
        </mxCell>
        <mxCell id="SvLPKWam39RE-qO2pDDD-43" value="" style="edgeStyle=orthogonalEdgeStyle;rounded=0;orthogonalLoop=1;jettySize=auto;html=1;" parent="1" source="SvLPKWam39RE-qO2pDDD-40" target="SvLPKWam39RE-qO2pDDD-42" edge="1">
          <mxGeometry relative="1" as="geometry" />
        </mxCell>
        <mxCell id="xOvBjF_Q9MGysYFC8JYx-2" value="" style="edgeStyle=orthogonalEdgeStyle;rounded=0;orthogonalLoop=1;jettySize=auto;html=1;" parent="1" source="SvLPKWam39RE-qO2pDDD-40" target="xOvBjF_Q9MGysYFC8JYx-1" edge="1">
          <mxGeometry relative="1" as="geometry" />
        </mxCell>
        <mxCell id="SvLPKWam39RE-qO2pDDD-40" value="Guess &amp;gt; number ?" style="rhombus;whiteSpace=wrap;html=1;rounded=0;" parent="1" vertex="1">
          <mxGeometry x="257.88" y="1000" width="150.97" height="80" as="geometry" />
        </mxCell>
        <mxCell id="fQKbzz16b-_kMXpAQXdr-4" value="" style="edgeStyle=orthogonalEdgeStyle;rounded=0;orthogonalLoop=1;jettySize=auto;html=1;" edge="1" parent="1" source="SvLPKWam39RE-qO2pDDD-42" target="fQKbzz16b-_kMXpAQXdr-2">
          <mxGeometry relative="1" as="geometry" />
        </mxCell>
        <mxCell id="SvLPKWam39RE-qO2pDDD-42" value="Show&lt;div&gt;&lt;br&gt;&lt;div&gt;&quot;Score&quot; +&amp;nbsp; Score&lt;br&gt;&lt;div&gt;&amp;nbsp; &lt;font face=&quot;Consolas, Courier New, monospace&quot;&gt;&lt;span style=&quot;font-size: 14px; white-space: pre;&quot;&gt;The wining number is lower than ur Guess&lt;/span&gt;&lt;/font&gt;&lt;div&gt;&lt;span style=&quot;color: light-dark(rgb(0, 0, 0), rgb(255, 255, 255));&quot;&gt;&amp;nbsp;&lt;/span&gt;&lt;/div&gt;&lt;/div&gt;&lt;/div&gt;&lt;/div&gt;" style="whiteSpace=wrap;html=1;rounded=0;" parent="1" vertex="1">
          <mxGeometry x="-230" y="997.5" width="350" height="82.5" as="geometry" />
        </mxCell>
        <mxCell id="SvLPKWam39RE-qO2pDDD-44" value="Ture (Guess &amp;gt; number)" style="text;html=1;align=center;verticalAlign=middle;resizable=0;points=[];autosize=1;strokeColor=none;fillColor=none;" parent="1" vertex="1">
          <mxGeometry x="130" y="1010" width="150" height="30" as="geometry" />
        </mxCell>
        <mxCell id="xOvBjF_Q9MGysYFC8JYx-4" value="" style="edgeStyle=orthogonalEdgeStyle;rounded=0;orthogonalLoop=1;jettySize=auto;html=1;" parent="1" source="xOvBjF_Q9MGysYFC8JYx-1" target="xOvBjF_Q9MGysYFC8JYx-3" edge="1">
          <mxGeometry relative="1" as="geometry" />
        </mxCell>
        <mxCell id="xOvBjF_Q9MGysYFC8JYx-7" value="" style="edgeStyle=orthogonalEdgeStyle;rounded=0;orthogonalLoop=1;jettySize=auto;html=1;" parent="1" source="xOvBjF_Q9MGysYFC8JYx-1" edge="1">
          <mxGeometry relative="1" as="geometry">
            <mxPoint x="333.365" y="1320" as="targetPoint" />
          </mxGeometry>
        </mxCell>
        <mxCell id="xOvBjF_Q9MGysYFC8JYx-1" value="Guess &amp;lt;&amp;nbsp; number ?" style="rhombus;whiteSpace=wrap;html=1;rounded=0;" parent="1" vertex="1">
          <mxGeometry x="257.88" y="1160" width="150.97" height="80" as="geometry" />
        </mxCell>
        <mxCell id="fQKbzz16b-_kMXpAQXdr-5" value="" style="edgeStyle=orthogonalEdgeStyle;rounded=0;orthogonalLoop=1;jettySize=auto;html=1;" edge="1" parent="1" source="xOvBjF_Q9MGysYFC8JYx-3" target="fQKbzz16b-_kMXpAQXdr-3">
          <mxGeometry relative="1" as="geometry" />
        </mxCell>
        <mxCell id="xOvBjF_Q9MGysYFC8JYx-3" value="Show&lt;div&gt;&lt;br&gt;&lt;/div&gt;&lt;div&gt;&quot;Score&quot; + Score&lt;br&gt;&lt;div&gt;&amp;nbsp; &lt;font face=&quot;Consolas, Courier New, monospace&quot;&gt;&lt;span style=&quot;font-size: 14px; white-space: pre;&quot;&gt;The wining number is higher than ur Guess &lt;/span&gt;&lt;/font&gt;&lt;div&gt;&lt;span style=&quot;color: light-dark(rgb(0, 0, 0), rgb(255, 255, 255));&quot;&gt;&amp;nbsp;&lt;/span&gt;&lt;/div&gt;&lt;/div&gt;&lt;/div&gt;" style="whiteSpace=wrap;html=1;rounded=0;" parent="1" vertex="1">
          <mxGeometry x="-250" y="1157.5" width="350" height="82.5" as="geometry" />
        </mxCell>
        <mxCell id="xOvBjF_Q9MGysYFC8JYx-5" value="Ture (Guess &amp;lt; number)" style="text;html=1;align=center;verticalAlign=middle;resizable=0;points=[];autosize=1;strokeColor=none;fillColor=none;" parent="1" vertex="1">
          <mxGeometry x="125.06" y="1169" width="150" height="30" as="geometry" />
        </mxCell>
        <mxCell id="xOvBjF_Q9MGysYFC8JYx-13" value="" style="edgeStyle=orthogonalEdgeStyle;rounded=0;orthogonalLoop=1;jettySize=auto;html=1;" parent="1" edge="1">
          <mxGeometry relative="1" as="geometry">
            <mxPoint x="333.41666666666674" y="1399.9726214921286" as="sourcePoint" />
            <mxPoint x="334.57142857142844" y="1460" as="targetPoint" />
            <Array as="points">
              <mxPoint x="333" y="1430" />
              <mxPoint x="335" y="1430" />
            </Array>
          </mxGeometry>
        </mxCell>
        <mxCell id="xOvBjF_Q9MGysYFC8JYx-10" value="&lt;div&gt;Show&lt;/div&gt;&lt;div&gt;&lt;span style=&quot;color: initial; font-family: &amp;quot;Monaspace Neon&amp;quot;, ui-monospace, SFMono-Regular, &amp;quot;SF Mono&amp;quot;, Menlo, Consolas, &amp;quot;Liberation Mono&amp;quot;, monospace; font-size: 13.6px; text-align: start;&quot;&gt;&quot;That is correct&lt;/span&gt;&lt;span style=&quot;color: initial; font-family: &amp;quot;Monaspace Neon&amp;quot;, ui-monospace, SFMono-Regular, &amp;quot;SF Mono&amp;quot;, Menlo, Consolas, &amp;quot;Liberation Mono&amp;quot;, monospace; font-size: 13.6px; text-align: start; box-sizing: border-box; text-decoration-color: initial;&quot; class=&quot;pl-k&quot;&gt;!&lt;/span&gt;&lt;span style=&quot;color: initial; font-family: &amp;quot;Monaspace Neon&amp;quot;, ui-monospace, SFMono-Regular, &amp;quot;SF Mono&amp;quot;, Menlo, Consolas, &amp;quot;Liberation Mono&amp;quot;, monospace; font-size: 13.6px; text-align: start;&quot;&gt; The winning number is _&quot; number&lt;/span&gt;&lt;/div&gt;" style="whiteSpace=wrap;html=1;rounded=0;" parent="1" vertex="1">
          <mxGeometry x="160.00000000000006" y="1320" width="350" height="82.5" as="geometry" />
        </mxCell>
        <mxCell id="xOvBjF_Q9MGysYFC8JYx-16" value="False" style="text;html=1;align=center;verticalAlign=middle;resizable=0;points=[];autosize=1;strokeColor=none;fillColor=none;" parent="1" vertex="1">
          <mxGeometry x="334" y="1260" width="50" height="30" as="geometry" />
        </mxCell>
        <mxCell id="EXC76OILTYou8UnTK0i5-18" style="edgeStyle=orthogonalEdgeStyle;rounded=1;orthogonalLoop=1;jettySize=auto;html=1;entryX=0;entryY=0.5;entryDx=0;entryDy=0;curved=0;" parent="1" source="EXC76OILTYou8UnTK0i5-5" target="EXC76OILTYou8UnTK0i5-10" edge="1">
          <mxGeometry relative="1" as="geometry">
            <Array as="points">
              <mxPoint x="-615" y="735" />
            </Array>
          </mxGeometry>
        </mxCell>
        <mxCell id="EXC76OILTYou8UnTK0i5-5" value="" style="ellipse;whiteSpace=wrap;html=1;" parent="1" vertex="1">
          <mxGeometry x="-630" y="1022.5" width="30" height="32.5" as="geometry" />
        </mxCell>
        <mxCell id="EXC76OILTYou8UnTK0i5-17" style="edgeStyle=orthogonalEdgeStyle;rounded=0;orthogonalLoop=1;jettySize=auto;html=1;entryX=0.5;entryY=0;entryDx=0;entryDy=0;" parent="1" source="EXC76OILTYou8UnTK0i5-10" target="SvLPKWam39RE-qO2pDDD-34" edge="1">
          <mxGeometry relative="1" as="geometry" />
        </mxCell>
        <mxCell id="EXC76OILTYou8UnTK0i5-10" value="" style="ellipse;whiteSpace=wrap;html=1;aspect=fixed;" parent="1" vertex="1">
          <mxGeometry x="318.36" y="720" width="30" height="30" as="geometry" />
        </mxCell>
        <mxCell id="EXC76OILTYou8UnTK0i5-22" value="" style="edgeStyle=orthogonalEdgeStyle;rounded=0;orthogonalLoop=1;jettySize=auto;html=1;" parent="1" source="EXC76OILTYou8UnTK0i5-20" target="SvLPKWam39RE-qO2pDDD-10" edge="1">
          <mxGeometry relative="1" as="geometry" />
        </mxCell>
        <mxCell id="EXC76OILTYou8UnTK0i5-20" value="" style="ellipse;whiteSpace=wrap;html=1;aspect=fixed;" parent="1" vertex="1">
          <mxGeometry x="320" y="220" width="30" height="30" as="geometry" />
        </mxCell>
        <mxCell id="EXC76OILTYou8UnTK0i5-43" style="edgeStyle=orthogonalEdgeStyle;rounded=0;orthogonalLoop=1;jettySize=auto;html=1;entryX=0;entryY=0.5;entryDx=0;entryDy=0;fillColor=#f8cecc;strokeColor=#b85450;exitX=0;exitY=0.5;exitDx=0;exitDy=0;" parent="1" source="EXC76OILTYou8UnTK0i5-24" target="EXC76OILTYou8UnTK0i5-20" edge="1">
          <mxGeometry relative="1" as="geometry">
            <Array as="points">
              <mxPoint x="185" y="1495" />
              <mxPoint x="-660" y="1495" />
              <mxPoint x="-660" y="240" />
              <mxPoint x="320" y="240" />
            </Array>
            <mxPoint x="155" y="1495" as="sourcePoint" />
            <mxPoint x="290" y="240" as="targetPoint" />
          </mxGeometry>
        </mxCell>
        <mxCell id="EXC76OILTYou8UnTK0i5-24" value="Exit ←&amp;nbsp;false" style="rounded=0;whiteSpace=wrap;html=1;" parent="1" vertex="1">
          <mxGeometry x="185" y="1460" width="300" height="60" as="geometry" />
        </mxCell>
        <mxCell id="EXC76OILTYou8UnTK0i5-41" value="End" style="rounded=1;whiteSpace=wrap;html=1;" parent="1" vertex="1">
          <mxGeometry x="243.54000000000002" y="1800" width="179.64" height="40" as="geometry" />
        </mxCell>
        <mxCell id="EXC76OILTYou8UnTK0i5-46" style="edgeStyle=orthogonalEdgeStyle;rounded=1;orthogonalLoop=1;jettySize=auto;html=1;entryX=1;entryY=0.5;entryDx=0;entryDy=0;curved=0;" parent="1" source="EXC76OILTYou8UnTK0i5-45" target="EXC76OILTYou8UnTK0i5-20" edge="1">
          <mxGeometry relative="1" as="geometry">
            <Array as="points">
              <mxPoint x="820" y="680" />
              <mxPoint x="820" y="235" />
            </Array>
          </mxGeometry>
        </mxCell>
        <mxCell id="EXC76OILTYou8UnTK0i5-49" value="" style="edgeStyle=orthogonalEdgeStyle;rounded=0;orthogonalLoop=1;jettySize=auto;html=1;" parent="1" source="EXC76OILTYou8UnTK0i5-45" target="EXC76OILTYou8UnTK0i5-48" edge="1">
          <mxGeometry relative="1" as="geometry" />
        </mxCell>
        <mxCell id="EXC76OILTYou8UnTK0i5-45" value="condition?&lt;span style=&quot;color: rgba(0, 0, 0, 0); font-family: monospace; font-size: 0px; text-align: start; text-wrap-mode: nowrap;&quot;&gt;%3CmxGraphModel%3E%3Croot%3E%3CmxCell%20id%3D%220%22%2F%3E%3CmxCell%20id%3D%221%22%20parent%3D%220%22%2F%3E%3CmxCell%20id%3D%222%22%20value%3D%22confirm%20%E2%86%90%201%3F%26lt%3Bdiv%26gt%3Band%20confirm%20%E2%86%90%26amp%3Bnbsp%3B-1%20%3F%26lt%3B%2Fdiv%26gt%3B%22%20style%3D%22rhombus%3BwhiteSpace%3Dwrap%3Bhtml%3D1%3B%22%20vertex%3D%221%22%20parent%3D%221%22%3E%3CmxGeometry%20x%3D%22347%22%20y%3D%22470%22%20width%3D%22134%22%20height%3D%22100%22%20as%3D%22geometry%22%2F%3E%3C%2FmxCell%3E%3C%2Froot%3E%3C%2FmxGraphModel%3E&amp;nbsp; &amp;nbsp;&lt;/span&gt;&amp;nbsp;&lt;span style=&quot;color: rgba(0, 0, 0, 0); font-family: monospace; font-size: 0px; text-align: start; text-wrap-mode: nowrap;&quot;&gt;%3CmxGraphModel%3E%3Croot%3E%3CmxCell%20id%3D%220%22%2F%3E%3CmxCell%20id%3D%221%22%20parent%3D%220%22%2F%3E%3CmxCell%20id%3D%222%22%20value%3D%22confirm%20%E2%86%90%201%3F%26lt%3Bdiv%26gt%3Band%20confirm%20%E2%86%90%26amp%3Bnbsp%3B-1%20%3F%26lt%3B%2Fdiv%26gt%3B%22%20style%3D%22rhombus%3BwhiteSpace%3Dwrap%3Bhtml%3D1%3B%22%20vertex%3D%221%22%20parent%3D%221%22%3E%3CmxGeometry%20x%3D%22347%22%20y%3D%22470%22%20width%3D%22134%22%20height%3D%22100%22%20as%3D%22geometry%22%2F%3E%3C%2FmxCell%3E%3C%2Froot%3E%3C%2FmxGraphModel%3E&lt;/span&gt;" style="rhombus;whiteSpace=wrap;html=1;" parent="1" vertex="1">
          <mxGeometry x="553" y="630" width="134" height="100" as="geometry" />
        </mxCell>
        <mxCell id="EXC76OILTYou8UnTK0i5-47" value="True" style="text;html=1;align=center;verticalAlign=middle;resizable=0;points=[];autosize=1;strokeColor=none;fillColor=none;" parent="1" vertex="1">
          <mxGeometry x="727" y="650" width="50" height="30" as="geometry" />
        </mxCell>
        <mxCell id="EXC76OILTYou8UnTK0i5-52" style="edgeStyle=orthogonalEdgeStyle;rounded=1;orthogonalLoop=1;jettySize=auto;html=1;entryX=0.5;entryY=0;entryDx=0;entryDy=0;curved=0;fillColor=#d5e8d4;strokeColor=#82b366;" parent="1" source="EXC76OILTYou8UnTK0i5-48" target="EXC76OILTYou8UnTK0i5-51" edge="1">
          <mxGeometry relative="1" as="geometry">
            <Array as="points">
              <mxPoint x="620" y="1590" />
              <mxPoint x="333" y="1590" />
            </Array>
          </mxGeometry>
        </mxCell>
        <mxCell id="EXC76OILTYou8UnTK0i5-48" value="See you agian" style="whiteSpace=wrap;html=1;" parent="1" vertex="1">
          <mxGeometry x="560" y="790" width="120" height="60" as="geometry" />
        </mxCell>
        <mxCell id="EXC76OILTYou8UnTK0i5-50" value="False" style="text;html=1;align=center;verticalAlign=middle;resizable=0;points=[];autosize=1;strokeColor=none;fillColor=none;" parent="1" vertex="1">
          <mxGeometry x="620" y="740" width="50" height="30" as="geometry" />
        </mxCell>
        <mxCell id="EXC76OILTYou8UnTK0i5-54" style="edgeStyle=orthogonalEdgeStyle;rounded=0;orthogonalLoop=1;jettySize=auto;html=1;entryX=0.5;entryY=0;entryDx=0;entryDy=0;" parent="1" source="EXC76OILTYou8UnTK0i5-51" target="EXC76OILTYou8UnTK0i5-41" edge="1">
          <mxGeometry relative="1" as="geometry" />
        </mxCell>
        <mxCell id="EXC76OILTYou8UnTK0i5-51" value="" style="ellipse;whiteSpace=wrap;html=1;" parent="1" vertex="1">
          <mxGeometry x="318.36" y="1640" width="30" height="32.5" as="geometry" />
        </mxCell>
        <mxCell id="fQKbzz16b-_kMXpAQXdr-12" value="" style="edgeStyle=orthogonalEdgeStyle;rounded=0;orthogonalLoop=1;jettySize=auto;html=1;" edge="1" parent="1" source="fQKbzz16b-_kMXpAQXdr-2" target="fQKbzz16b-_kMXpAQXdr-9">
          <mxGeometry relative="1" as="geometry" />
        </mxCell>
        <mxCell id="fQKbzz16b-_kMXpAQXdr-2" value="Min ← Guess" style="whiteSpace=wrap;html=1;rounded=0;" vertex="1" parent="1">
          <mxGeometry x="-413" y="1005" width="130" height="70" as="geometry" />
        </mxCell>
        <mxCell id="fQKbzz16b-_kMXpAQXdr-11" value="" style="edgeStyle=orthogonalEdgeStyle;rounded=0;orthogonalLoop=1;jettySize=auto;html=1;" edge="1" parent="1" source="fQKbzz16b-_kMXpAQXdr-3" target="fQKbzz16b-_kMXpAQXdr-10">
          <mxGeometry relative="1" as="geometry" />
        </mxCell>
        <mxCell id="fQKbzz16b-_kMXpAQXdr-3" value="Max ← Guess" style="whiteSpace=wrap;html=1;rounded=0;" vertex="1" parent="1">
          <mxGeometry x="-413" y="1163.75" width="130" height="70" as="geometry" />
        </mxCell>
        <mxCell id="fQKbzz16b-_kMXpAQXdr-7" value="False" style="text;html=1;align=center;verticalAlign=middle;resizable=0;points=[];autosize=1;strokeColor=none;fillColor=none;" vertex="1" parent="1">
          <mxGeometry x="334" y="1100" width="50" height="30" as="geometry" />
        </mxCell>
        <mxCell id="fQKbzz16b-_kMXpAQXdr-9" value="Score - = 10" style="whiteSpace=wrap;html=1;rounded=0;" vertex="1" parent="1">
          <mxGeometry x="-580" y="1005" width="130" height="70" as="geometry" />
        </mxCell>
        <mxCell id="fQKbzz16b-_kMXpAQXdr-13" style="edgeStyle=orthogonalEdgeStyle;rounded=1;orthogonalLoop=1;jettySize=auto;html=1;entryX=0.5;entryY=1;entryDx=0;entryDy=0;curved=0;" edge="1" parent="1" source="fQKbzz16b-_kMXpAQXdr-10" target="EXC76OILTYou8UnTK0i5-5">
          <mxGeometry relative="1" as="geometry" />
        </mxCell>
        <mxCell id="fQKbzz16b-_kMXpAQXdr-10" value="Score - = 10" style="whiteSpace=wrap;html=1;rounded=0;" vertex="1" parent="1">
          <mxGeometry x="-580" y="1163.75" width="130" height="70" as="geometry" />
        </mxCell>
      </root>
    </mxGraphModel>
  </diagram>
</mxfile>
